<mxfile host="app.diagrams.net" agent="Mozilla/5.0 (Windows NT 10.0; Win64; x64) AppleWebKit/537.36 (KHTML, like Gecko) Chrome/132.0.0.0 Safari/537.36" version="26.0.14">
  <diagram name="Página-1" id="Kxb3MJBQ49_A3CXvYtSO">
    <mxGraphModel dx="1114" dy="558" grid="1" gridSize="10" guides="1" tooltips="1" connect="1" arrows="1" fold="1" page="1" pageScale="1" pageWidth="850" pageHeight="1100" math="0" shadow="0">
      <root>
        <mxCell id="0" />
        <mxCell id="1" parent="0" />
        <mxCell id="QScQb8Tn5YqPA8ypLAmB-3" value="" style="edgeStyle=orthogonalEdgeStyle;rounded=0;orthogonalLoop=1;jettySize=auto;html=1;" edge="1" parent="1" source="QScQb8Tn5YqPA8ypLAmB-1" target="QScQb8Tn5YqPA8ypLAmB-2">
          <mxGeometry relative="1" as="geometry" />
        </mxCell>
        <mxCell id="QScQb8Tn5YqPA8ypLAmB-1" value="Inicio" style="ellipse;whiteSpace=wrap;html=1;" vertex="1" parent="1">
          <mxGeometry x="365" y="20" width="120" height="80" as="geometry" />
        </mxCell>
        <mxCell id="QScQb8Tn5YqPA8ypLAmB-5" value="" style="edgeStyle=orthogonalEdgeStyle;rounded=0;orthogonalLoop=1;jettySize=auto;html=1;" edge="1" parent="1" source="QScQb8Tn5YqPA8ypLAmB-2" target="QScQb8Tn5YqPA8ypLAmB-4">
          <mxGeometry relative="1" as="geometry" />
        </mxCell>
        <mxCell id="QScQb8Tn5YqPA8ypLAmB-2" value="Ingresar numero" style="whiteSpace=wrap;html=1;" vertex="1" parent="1">
          <mxGeometry x="365" y="130" width="120" height="60" as="geometry" />
        </mxCell>
        <mxCell id="QScQb8Tn5YqPA8ypLAmB-9" value="" style="edgeStyle=orthogonalEdgeStyle;rounded=0;orthogonalLoop=1;jettySize=auto;html=1;" edge="1" parent="1" source="QScQb8Tn5YqPA8ypLAmB-4" target="QScQb8Tn5YqPA8ypLAmB-8">
          <mxGeometry relative="1" as="geometry" />
        </mxCell>
        <mxCell id="QScQb8Tn5YqPA8ypLAmB-11" value="" style="edgeStyle=orthogonalEdgeStyle;rounded=0;orthogonalLoop=1;jettySize=auto;html=1;" edge="1" parent="1" source="QScQb8Tn5YqPA8ypLAmB-4" target="QScQb8Tn5YqPA8ypLAmB-10">
          <mxGeometry relative="1" as="geometry" />
        </mxCell>
        <mxCell id="QScQb8Tn5YqPA8ypLAmB-4" value="número % 3 == 0 AND número % 5 == 0?" style="rhombus;whiteSpace=wrap;html=1;" vertex="1" parent="1">
          <mxGeometry x="338" y="240" width="175" height="150" as="geometry" />
        </mxCell>
        <mxCell id="QScQb8Tn5YqPA8ypLAmB-8" value="Mostrar &quot;El numero es divisible entre 3 y 5&quot;" style="whiteSpace=wrap;html=1;" vertex="1" parent="1">
          <mxGeometry x="130" y="410" width="120" height="60" as="geometry" />
        </mxCell>
        <mxCell id="QScQb8Tn5YqPA8ypLAmB-10" value="Mostrar &quot;El numero no es divisible entre 3 y 5&quot;" style="whiteSpace=wrap;html=1;" vertex="1" parent="1">
          <mxGeometry x="600" y="410" width="120" height="60" as="geometry" />
        </mxCell>
        <mxCell id="QScQb8Tn5YqPA8ypLAmB-12" value="Fin" style="ellipse;whiteSpace=wrap;html=1;" vertex="1" parent="1">
          <mxGeometry x="365" y="510" width="120" height="80" as="geometry" />
        </mxCell>
        <mxCell id="QScQb8Tn5YqPA8ypLAmB-13" value="" style="endArrow=classic;html=1;rounded=0;exitX=0.5;exitY=1;exitDx=0;exitDy=0;" edge="1" parent="1" source="QScQb8Tn5YqPA8ypLAmB-8">
          <mxGeometry width="50" height="50" relative="1" as="geometry">
            <mxPoint x="315" y="600" as="sourcePoint" />
            <mxPoint x="365" y="550" as="targetPoint" />
            <Array as="points">
              <mxPoint x="190" y="550" />
            </Array>
          </mxGeometry>
        </mxCell>
        <mxCell id="QScQb8Tn5YqPA8ypLAmB-14" value="" style="endArrow=classic;html=1;rounded=0;exitX=0.5;exitY=1;exitDx=0;exitDy=0;" edge="1" parent="1" source="QScQb8Tn5YqPA8ypLAmB-10">
          <mxGeometry width="50" height="50" relative="1" as="geometry">
            <mxPoint x="640" y="550" as="sourcePoint" />
            <mxPoint x="490" y="550" as="targetPoint" />
            <Array as="points">
              <mxPoint x="660" y="550" />
            </Array>
          </mxGeometry>
        </mxCell>
      </root>
    </mxGraphModel>
  </diagram>
</mxfile>
